<svg width="794" height="1123" viewBox="0 0 794 1123" fill="none" xmlns="http://www.w3.org/2000/svg">

  <!-- Background -->
  <rect width="794" height="1123" fill="#F8FAFC"></rect>

  <!-- Gradient Blob Top -->
  <ellipse cx="650" cy="-100" rx="400" ry="300" fill="url(#grad1)" opacity="0.25"></ellipse>

  <!-- Gradient Blob Bottom -->
  <ellipse cx="100" cy="1150" rx="400" ry="300" fill="url(#grad2)" opacity="0.2"></ellipse>

  <!-- Soft Lines (tech feel) -->
  <path d="M0 300 C 200 250, 400 350, 794 280" stroke="#3B82F6" stroke-width="1.5" opacity="0.1"></path>
  <path d="M0 600 C 200 550, 500 650, 794 580" stroke="#3B82F6" stroke-width="1.5" opacity="0.08"></path>
  <path d="M0 900 C 300 850, 500 950, 794 880" stroke="#3B82F6" stroke-width="1.5" opacity="0.06"></path>

  <!-- Subtle Grid -->
  <g opacity="0.03">
    <line x1="0" y1="0" x2="0" y2="1123" stroke="#3B82F6"></line>
    <line x1="100" y1="0" x2="100" y2="1123" stroke="#3B82F6"></line>
    <line x1="200" y1="0" x2="200" y2="1123" stroke="#3B82F6"></line>
    <line x1="300" y1="0" x2="300" y2="1123" stroke="#3B82F6"></line>
    <line x1="400" y1="0" x2="400" y2="1123" stroke="#3B82F6"></line>
    <line x1="500" y1="0" x2="500" y2="1123" stroke="#3B82F6"></line>
    <line x1="600" y1="0" x2="600" y2="1123" stroke="#3B82F6"></line>
    <line x1="700" y1="0" x2="700" y2="1123" stroke="#3B82F6"></line>
  </g>

  <!-- Footer Accent -->
  <rect x="0" y="1080" width="794" height="43" fill="url(#grad3)" opacity="0.9"></rect>

  <!-- Gradients -->
  <defs>
    <linearGradient id="grad1" x1="0" y1="0" x2="1" y2="1">
      <stop offset="0%" stop-color="#3B82F6"></stop>
      <stop offset="100%" stop-color="#60A5FA"></stop>
    </linearGradient>

    <linearGradient id="grad2" x1="0" y1="0" x2="1" y2="1">
      <stop offset="0%" stop-color="#3B82F6"></stop>
      <stop offset="100%" stop-color="#93C5FD"></stop>
    </linearGradient>

    <linearGradient id="grad3" x1="0" y1="0" x2="794" y2="0">
      <stop offset="0%" stop-color="#3B82F6"></stop>
      <stop offset="100%" stop-color="#2563EB"></stop>
    </linearGradient>
  </defs>

</svg>